#N canvas 668 191 1123 766 10;
#X declare -lib mrpeach;
#X obj 27 180 import mrpeach;
#X obj 29 680 udpsend;
#X obj 111 662 packOSC;
#X msg 626 428 0;
#X msg 664 427 1;
#X msg 28 209 connect localhost 8000;
#X msg 631 772 send /stream/create/fromstring \$1;
#X msg 625 463 send /stream/start \$1;
#X msg 678 593 1;
#X msg 631 623 send /stream/delete \$1;
#X text 625 499 print streaming caps \, important if bitrates or video
input caps are changed;
#X text 628 571 stop and delete a pipeline object;
#X msg 853 111 UDPSrcToFileSink;
#X msg 577 110 FileSrcToV4l2Loopback;
#X text 304 45 following pipelines are available \, see the config.ini
for details. the important "pipeline number" is the number of the current
stream. the pipeline number changes the pipeline attributes \, as it
they are listed in the config;
#X text 621 404 after a stream was created \, it has to be started
;
#X msg 632 691 v4l2src name=vsource ! videoscale ! video/x-raw-yuv
\, width=640 \, height=480 ! videorate ! video/x-raw-yuv \, framerate=25/1
! ffmpegcolorspace ! ffenc_mpeg4 bitrate=200000 ! rtpmp4vpay ! udpsink
host=127.0.0.1 port=5000 name=vsink;
#X text 632 661 not working \, but might be an nice way to create pipelines!
osc cant send this as a string!;
#X floatatom 69 419 5 0 0 0 - - -;
#X msg 727 110 VideoSrcToUDPSink;
#X msg 307 108 VideoSrcToFileSink;
#X msg 613 297 send /stream/create/fromfactory UDPSrcToV4l2Loopback
;
#X msg 436 110 UDPSrcToV4l2Loopback;
#X text 738 428 stream number;
#X msg 700 427 2;
#X msg 633 593 0;
#X msg 717 592 2;
#X msg 755 593 3;
#X text 788 593 stream number;
#X text 559 159 dont know how to send the strings above to the pd object
\, \$1 is not working \, so copy one of the above strings;
#X msg 561 193 send /stream/create/fromfactory \$1;
#X text 563 219 like this its working;
#X text 622 394 start/stop stream;
#X text 68 367 !! config number !! changes the parameter of the stream
when a stream is created \, e.g the video device is the config number
\, also the udp port is 5000 + the config number;
#X msg 69 444 send /config/change/number \$1;
#X msg 614 272 send /stream/create/fromfactory VideoSrcToUDPSink;
#X msg 612 322 send /stream/create/fromfactory UDPSrcToFileSink;
#X msg 614 247 send /stream/create/fromfactory VideoSrcToFileSink;
#X msg 611 346 send /stream/create/fromfactory FileSrcToV4l2Loopback
;
#X msg 627 528 send /caps/print 1;
#X connect 2 0 1 0;
#X connect 3 0 7 0;
#X connect 4 0 7 0;
#X connect 5 0 1 0;
#X connect 6 0 2 0;
#X connect 7 0 2 0;
#X connect 8 0 9 0;
#X connect 9 0 2 0;
#X connect 13 0 30 0;
#X connect 16 0 6 0;
#X connect 18 0 34 0;
#X connect 20 0 30 0;
#X connect 21 0 2 0;
#X connect 22 0 30 0;
#X connect 24 0 7 0;
#X connect 25 0 9 0;
#X connect 26 0 9 0;
#X connect 27 0 9 0;
#X connect 30 0 2 0;
#X connect 34 0 2 0;
#X connect 35 0 2 0;
#X connect 36 0 2 0;
#X connect 37 0 2 0;
#X connect 38 0 2 0;
#X connect 39 0 2 0;
#X coords 0 38300 50 38250 0 0 0;
