#N canvas 856 111 1004 630 10;
#X declare -lib mrpeach;
#X obj 50 32 import mrpeach;
#X obj 28 250 udpsend;
#X obj 124 190 packOSC;
#X msg 125 105 0;
#X msg 177 104 1;
#X msg 28 73 connect localhost 8000;
#X msg 337 148 send /stream/create/fromstring \$1;
#X text 537 66 comment;
#X msg 346 26 [v4l2src name=vsource ! videoscale ! video/x-raw-yuv
\, width=640 \, height=480 ! videorate ! video/x-raw-yuv \, framerate=25/1
! ffmpegcolorspace ! ffenc_mpeg4 bitrate=200000 ! rtpmp4vpay ! udpsink
host=127.0.0.1 port=5000 name=vsink];
#X msg 129 145 send /stream/start \$1;
#X msg 597 147 send /print/caps 1;
#X connect 2 0 1 0;
#X connect 3 0 9 0;
#X connect 4 0 9 0;
#X connect 5 0 1 0;
#X connect 6 0 2 0;
#X connect 8 0 6 0;
#X connect 9 0 2 0;
#X connect 10 0 2 0;
