#N canvas 970 218 450 300 10;
#X declare -lib mrpeach;
#X obj 50 32 import mrpeach;
#X obj 28 250 udpsend;
#X obj 124 190 packOSC;
#X msg 125 105 0;
#X msg 177 104 1;
#X msg 28 73 connect localhost 8000;
#X msg 129 145 send /startstopstream \$1;
#X connect 2 0 1 0;
#X connect 3 0 6 0;
#X connect 4 0 6 0;
#X connect 5 0 1 0;
#X connect 6 0 2 0;
