#N canvas 140 53 1417 948 10;
#X declare -lib mrpeach;
#X obj 257 843 udpsend;
#X obj 450 817 packOSC;
#X msg 543 882 send /stream/create/fromstring \$1;
#X msg 544 801 v4l2src name=vsource ! videoscale ! video/x-raw-yuv
\, width=640 \, height=480 ! videorate ! video/x-raw-yuv \, framerate=25/1
! ffmpegcolorspace ! ffenc_mpeg4 bitrate=200000 ! rtpmp4vpay ! udpsink
host=127.0.0.1 port=5000 name=vsink;
#X text 544 771 not working \, but might be an nice way to create pipelines!
osc cant send this as a string!;
#X obj 100 118 cnv 15 398 250 empty empty empty 25 9 1 14 -228856 -262144
0;
#X obj 109 173 bng 15 250 50 0 type0 empty VideoSrcToUDPSink 17 9 1
14 -261234 -258113 -1;
#X obj 109 193 bng 15 250 50 0 type1 empty UDPSrcToV4L2Loopback 17
9 1 14 -260097 -1 -1;
#X obj 109 213 bng 15 250 50 0 type2 empty FileSrcToV4L2Loopback 17
9 1 14 -257985 -1 -1;
#X obj 109 233 bng 15 250 50 0 type3 empty VideoSrcToFileSink 17 9
1 14 -4034 -1 -1;
#X obj 109 253 bng 15 250 50 0 type4 empty UDPSrcToFileSink 17 9 1
14 -4032 -1 -1;
#X obj 109 153 bng 15 250 50 0 connect empty connect_to_localhost 17
9 1 14 -262144 -1 -1;
#X obj 303 152 nbx 5 15 -1e+37 1e+37 0 1 OSC_port load OSC_port 65
9 1 14 -262144 -1 -1 8000 256;
#X obj 107 279 hradio 15 1 0 8 config_number empty config_number 125
9 1 14 -262144 -260097 -1 0;
#X obj 544 99 cnv 15 420 300 empty empty PIPELINES 5 12 0 14 -204786
-66577 0;
#X text 548 117 following pipelines are available \, see the config.ini
for details. the important "pipeline number" is the number of the current
stream. the pipeline number changes the pipeline attributes \, as it
they are listed in the config;
#X msg 637 353 send /stream/create/fromfactory UDPSrcToV4l2Loopback
;
#X msg 617 313 send /stream/create/fromfactory VideoSrcToUDPSink;
#X obj 557 373 t a;
#X msg 597 273 send /stream/create/fromfactory FileSrcToV4l2Loopback
;
#X msg 577 233 send /stream/create/fromfactory VideoSrcToFileSink;
#X msg 557 193 send /stream/create/fromfactory UDPSrcToFileSink;
#X obj 544 404 cnv 15 420 95 empty empty CONFIG_NUMBER 5 12 0 14 -261682
-1 0;
#X msg 547 476 send /config/change/number \$1;
#X text 301 167 standard: 8000;
#X text 300 174 press connect again;
#X text 299 183 after changing port;
#X obj 302 238 cnv 15 100 8 empty empty stop&delete_pipeline_object
0 3 0 10 -228856 -1 0;
#X text 112 280 0;
#X text 215 278 7;
#X text 201 277 6;
#X text 185 278 5;
#X text 169 278 4;
#X text 156 278 3;
#X text 141 279 2;
#X text 127 278 1;
#X obj 210 314 bng 15 250 50 0 write_caps empty write_caps 17 9 1 14
-262144 -1 -1;
#X obj 546 504 cnv 15 420 90 empty empty STREAMS_Start/Stop 5 12 0
14 -204800 -1 0;
#X msg 550 546 0;
#X msg 588 547 1;
#X msg 550 568 send /stream/start \$1;
#X text 701 549 stream number;
#X msg 624 547 2;
#X text 702 528 start/stop stream;
#X obj 550 527 r s0;
#X obj 588 527 r s1;
#X obj 624 527 r s2;
#X text 816 516 After a stream was created \,;
#X text 816 526 it HAS to be startet!!!!!;
#X text 816 546 Bang once \, starts the stream \,;
#X text 816 556 Bang second time stops it;
#X obj 544 599 cnv 15 420 90 empty empty PIPELINES_Stop/Delete 5 12
0 14 -228856 -1 0;
#X msg 588 641 1;
#X msg 550 666 send /stream/delete \$1;
#X text 701 622 stop and delete a pipeline object;
#X msg 550 641 0;
#X msg 626 641 2;
#X msg 664 641 3;
#X text 701 640 stream number;
#X obj 664 621 r p3;
#X obj 626 621 r p2;
#X obj 588 621 r p1;
#X obj 550 621 r p0;
#X obj 544 694 cnv 15 420 65 empty empty PRINT_CAPS 5 12 0 14 -261234
-1 0;
#X obj 552 714 r caps;
#X obj 597 253 r type2;
#X obj 302 248 bng 20 250 50 0 p0 empty 0 5 12 1 18 -262144 -1 -1;
#X obj 332 248 bng 20 250 50 0 p1 empty 1 5 12 1 18 -262144 -1 -1;
#X obj 362 248 bng 20 250 50 0 p2 empty 2 5 12 1 18 -262144 -1 -1;
#X obj 392 248 bng 20 250 50 0 p3 empty 3 5 12 1 18 -262144 -1 -1;
#X obj 302 210 bng 20 250 50 0 s0 empty 0 5 12 1 18 -262144 -1 -1;
#X obj 332 213 bng 20 250 50 0 s1 empty 1 5 12 1 18 -262144 -1 -1;
#X obj 362 213 bng 20 250 50 0 s2 empty 2 5 12 1 18 -262144 -1 -1;
#X obj 109 133 bng 15 250 50 0 connect_web empty connect_to_IP 17 9
1 14 -262144 -1 -1;
#X obj 223 134 nbx 3 15 -1e+37 1e+37 0 1 ip0 load . 47 9 0 14 -262144
-1 -1 192 256;
#X obj 277 134 nbx 3 15 -1e+37 1e+37 0 1 ip1 load . 47 9 0 14 -262144
-1 -1 168 256;
#X obj 331 134 nbx 3 15 -1e+37 1e+37 0 1 ip2 load . 47 9 0 14 -262144
-1 -1 0 256;
#X obj 385 134 nbx 3 15 -1e+37 1e+37 0 1 ip3 load empty 47 9 0 14 -262144
-1 -1 22 256;
#X text 434 134 on OSCport;
#X obj 115 831 loadbang;
#X obj 115 852 s load;
#X obj 95 832 bng 15 250 50 0 empty empty empty 17 7 0 10 -262144 -1
-1;
#X obj 96 515 cnv 15 400 300 empty empty OSC_and_UDP_CONNECTION 20
12 0 14 -233017 -66577 0;
#X obj 200 550 import mrpeach;
#X obj 323 643 r OSC_port;
#X obj 257 643 r connect;
#X msg 257 734 connect localhost \$1;
#X msg 389 733 disconnect;
#X obj 323 662 t a b;
#X floatatom 257 713 5 0 0 0 - - -;
#X msg 265 690 set \$1;
#X obj 124 581 r ip0;
#X obj 160 581 r ip1;
#X obj 197 581 r ip2;
#X obj 233 581 r ip3;
#X obj 269 581 r OSC_port;
#X obj 124 641 pack f f f f f;
#X msg 111 711 192 168 0 22 8000;
#X obj 269 608 t b a;
#X obj 233 608 t b a;
#X obj 197 608 t b a;
#X obj 159 608 t b a;
#X msg 111 734 connect \$1.\$2.\$3.\$4 \$5;
#X msg 124 687 set \$1 \$2 \$3 \$4 \$5;
#X obj 124 661 t a b;
#X obj 111 550 r connect_web;
#X obj 216 788 print;
#X obj 257 787 t a;
#X obj 436 156 bng 15 250 50 0 disconnect empty disconnect 18 5 0 10
-262144 -1 -1;
#X obj 389 643 r disconnect;
#X obj 617 293 r type0;
#X obj 637 332 r type1;
#X obj 557 173 r type4;
#X obj 577 213 r type3;
#X msg 552 739 send /caps/print 0;
#X obj 661 527 r s3;
#X msg 661 547 3;
#X obj 392 213 bng 20 250 50 0 s3 empty 3 5 12 1 18 -262144 -1 -1;
#X text 902 741 comment;
#X obj 547 454 r config_number;
#N canvas 340 107 682 322 gemwin 0;
#X obj 102 122 tgl 15 0 \$0-gemstart \$0-gemstart empty 17 7 0 10 -262144
-1 -1 0 1;
#X obj 102 161 r \$0-gemstart;
#X obj 102 182 select 1 0;
#X msg 102 214 create \, 1;
#X msg 177 215 destroy;
#X obj 102 239 t a;
#X obj 318 54 inlet;
#X obj 318 255 gemwin;
#X obj 318 100 t a a;
#X obj 318 287 outlet;
#X obj 350 128 route create destroy;
#X obj 350 150 t b;
#X msg 350 172 1;
#X obj 390 150 t b;
#X msg 390 172 0;
#X obj 350 195 t f;
#X msg 350 219 set \$1;
#X text 118 122 rendering;
#X connect 1 0 2 0;
#X connect 2 0 3 0;
#X connect 2 1 4 0;
#X connect 3 0 5 0;
#X connect 4 0 5 0;
#X connect 5 0 8 0;
#X connect 6 0 8 0;
#X connect 7 0 9 0;
#X connect 8 0 7 0;
#X connect 8 1 10 0;
#X connect 10 0 11 0;
#X connect 10 1 13 0;
#X connect 11 0 12 0;
#X connect 12 0 15 0;
#X connect 13 0 14 0;
#X connect 14 0 15 0;
#X connect 15 0 16 0;
#X connect 16 0 0 0;
#X coords 0 -1 1 1 85 40 1 100 100;
#X restore 1435 359 pd gemwin;
#X text 899 747 comment;
#X obj 682 718 r capswrite;
#X obj 778 696 r capsread;
#X msg 778 717 send /caps/read/fromfile;
#X msg 682 739 send /caps/write/tofile;
#X obj 105 311 bng 15 250 50 0 caps empty print_caps 17 9 1 14 -262144
-1 -1;
#X obj 321 314 bng 15 250 50 0 read_caps empty read_caps 17 9 1 14
-262144 -1 -1;
#X obj 978 505 cnv 15 420 90 empty empty STREAM_set_ready 5 12 0 14
-228856 -1 0;
#X msg 992 537 0;
#X msg 1030 538 1;
#X msg 1066 538 2;
#X msg 1103 538 3;
#X msg 992 563 send /stream/ready \$1;
#X text 303 197 start/stop pipeline #:;
#X connect 1 0 0 0;
#X connect 2 0 1 0;
#X connect 3 0 2 0;
#X connect 16 0 18 0;
#X connect 17 0 18 0;
#X connect 18 0 1 0;
#X connect 19 0 18 0;
#X connect 20 0 18 0;
#X connect 21 0 18 0;
#X connect 23 0 1 0;
#X connect 38 0 40 0;
#X connect 39 0 40 0;
#X connect 40 0 1 0;
#X connect 42 0 40 0;
#X connect 44 0 38 0;
#X connect 45 0 39 0;
#X connect 46 0 42 0;
#X connect 52 0 53 0;
#X connect 53 0 1 0;
#X connect 55 0 53 0;
#X connect 56 0 53 0;
#X connect 57 0 53 0;
#X connect 59 0 57 0;
#X connect 60 0 56 0;
#X connect 61 0 52 0;
#X connect 62 0 55 0;
#X connect 64 0 114 0;
#X connect 65 0 19 0;
#X connect 79 0 80 0;
#X connect 81 0 80 0;
#X connect 84 0 88 0;
#X connect 85 0 89 0;
#X connect 86 0 106 0;
#X connect 86 0 107 0;
#X connect 87 0 107 0;
#X connect 87 0 106 0;
#X connect 88 0 90 0;
#X connect 88 1 87 0;
#X connect 89 0 86 0;
#X connect 90 0 89 0;
#X connect 91 0 96 0;
#X connect 92 0 96 1;
#X connect 92 0 101 0;
#X connect 93 0 100 0;
#X connect 94 0 99 0;
#X connect 95 0 98 0;
#X connect 96 0 104 0;
#X connect 97 0 102 0;
#X connect 98 0 96 0;
#X connect 98 1 96 4;
#X connect 99 0 96 0;
#X connect 99 1 96 3;
#X connect 100 0 96 0;
#X connect 100 1 96 2;
#X connect 101 0 96 0;
#X connect 101 1 96 1;
#X connect 102 0 106 0;
#X connect 102 0 107 0;
#X connect 103 0 97 0;
#X connect 104 0 103 0;
#X connect 104 1 87 0;
#X connect 105 0 97 0;
#X connect 107 0 0 0;
#X connect 109 0 87 0;
#X connect 110 0 17 0;
#X connect 111 0 16 0;
#X connect 112 0 21 0;
#X connect 113 0 20 0;
#X connect 114 0 1 0;
#X connect 115 0 116 0;
#X connect 116 0 40 0;
#X connect 119 0 23 0;
#X connect 122 0 125 0;
#X connect 123 0 124 0;
#X connect 124 0 1 0;
#X connect 125 0 1 0;
#X connect 129 0 133 0;
#X connect 130 0 133 0;
#X connect 131 0 133 0;
#X connect 132 0 133 0;
#X connect 133 0 1 0;
#X coords 0 -1 1 1 400 300 1 100 100;
